<svg width="56" height="56" viewBox="0 0 56 56" fill="none" xmlns="http://www.w3.org/2000/svg">
<g id="app 1">
<path id="Vector" d="M27.9446 16.7099C29.4344 16.7099 30.6461 15.4982 30.6461 14.0084V12.9228C30.6461 12.2913 30.1321 11.7773 29.5007 11.7773H26.3886C25.7571 11.7773 25.2432 12.2913 25.2432 12.9228V14.0084C25.2432 15.4982 26.4553 16.7099 27.9446 16.7099ZM26.8838 13.418H29.0055V14.0084C29.0055 14.5933 28.5295 15.0693 27.9446 15.0693C27.3597 15.0693 26.8838 14.5933 26.8838 14.0084V13.418Z" fill="#282828"/>
<path id="Vector_2" d="M34.9111 13.5076C35.364 13.5076 35.7314 13.1406 35.7314 12.6873V11.4453C35.7314 10.9924 35.364 10.625 34.9111 10.625C34.4578 10.625 34.0908 10.9924 34.0908 11.4453V12.6873C34.0908 13.1406 34.4578 13.5076 34.9111 13.5076Z" fill="#282828"/>
<path id="Vector_3" d="M20.9795 13.5076C21.4328 13.5076 21.7998 13.1406 21.7998 12.6873V11.4453C21.7998 10.9924 21.4328 10.625 20.9795 10.625C20.5262 10.625 20.1592 10.9924 20.1592 11.4453V12.6873C20.1592 13.1406 20.5262 13.5076 20.9795 13.5076Z" fill="#282828"/>
<path id="Vector_4" d="M34.2905 15.8555H35.5325C35.9858 15.8555 36.3528 15.4885 36.3528 15.0352C36.3528 14.5823 35.9858 14.2148 35.5325 14.2148H34.2905C33.8376 14.2148 33.4702 14.5823 33.4702 15.0352C33.4702 15.4885 33.8376 15.8555 34.2905 15.8555Z" fill="#282828"/>
<path id="Vector_5" d="M20.3589 15.8555H21.6009C22.0542 15.8555 22.4212 15.4885 22.4212 15.0352C22.4212 14.5823 22.0542 14.2148 21.6009 14.2148H20.3589C19.906 14.2148 19.5386 14.5823 19.5386 15.0352C19.5386 15.4885 19.906 15.8555 20.3589 15.8555Z" fill="#282828"/>
<path id="Vector_6" d="M44.352 13.5326C44.8053 13.5326 45.1723 13.1656 45.1723 12.7123V4.24468C45.1723 1.90423 43.2681 0 40.9276 0H14.9639C12.6235 0 10.7192 1.90423 10.7192 4.24468V51.7552C10.7192 54.0957 12.6235 55.9999 14.9639 55.9999H40.9276C43.2681 55.9999 45.1723 54.0961 45.1723 51.7552V15.7747C45.1723 15.3219 44.8053 14.9544 44.352 14.9544C43.8991 14.9544 43.5317 15.3219 43.5317 15.7747V51.7552C43.5317 53.1912 42.3636 54.3593 40.9276 54.3593H14.9639C13.5279 54.3593 12.3599 53.1912 12.3599 51.7552V4.24468C12.3599 2.80871 13.5279 1.64062 14.9639 1.64062H40.9276C42.3636 1.64062 43.5317 2.80871 43.5317 4.24468V12.7123C43.5317 13.1656 43.8991 13.5326 44.352 13.5326Z" fill="#282828"/>
<path id="Vector_7" d="M41.8906 43.7107V7.91431C41.8906 7.16876 41.2844 6.5625 40.5392 6.5625H15.3518C14.6063 6.5625 14 7.16876 14 7.91431V43.7107C14 44.4558 14.6063 45.0625 15.3518 45.0625H40.5388C41.2844 45.0625 41.8906 44.4562 41.8906 43.7107ZM40.25 43.4219H15.6406V8.20312H40.25V43.4219Z" fill="#282828"/>
<path id="Vector_8" d="M24.1357 49.7111C24.1357 51.8119 25.8447 53.5209 27.9455 53.5209C30.0463 53.5209 31.7557 51.8119 31.7557 49.7111C31.7557 47.6104 30.0463 45.9014 27.9455 45.9014C25.8447 45.9014 24.1357 47.6104 24.1357 49.7111ZM30.1151 49.7111C30.1151 50.9074 29.1418 51.8802 27.9455 51.8802C26.7496 51.8802 25.7764 50.9074 25.7764 49.7111C25.7764 48.5148 26.7496 47.542 27.9455 47.542C29.1418 47.542 30.1151 48.5148 30.1151 49.7111Z" fill="#282828"/>
<path id="Vector_9" d="M20.0549 29.8589H35.8357C36.762 29.8589 37.5156 29.1052 37.5156 28.179V21.2576C37.5156 20.3313 36.762 19.5776 35.8357 19.5776H20.0549C19.1287 19.5776 18.375 20.3313 18.375 21.2576V28.179C18.375 29.1052 19.1287 29.8589 20.0549 29.8589ZM20.0156 21.2576C20.0156 21.2358 20.0331 21.2183 20.0549 21.2183H35.8357C35.8575 21.2183 35.875 21.2358 35.875 21.2576V28.179C35.875 28.2007 35.8575 28.2183 35.8357 28.2183H20.0549C20.0331 28.2183 20.0156 28.2007 20.0156 28.179V21.2576Z" fill="#282828"/>
<path id="Vector_10" d="M20.0549 41.7812H35.8357C36.762 41.7812 37.5156 41.0276 37.5156 40.1013V33.1799C37.5156 32.2537 36.762 31.5 35.8357 31.5H29.6094C29.1566 31.5 28.7891 31.8674 28.7891 32.3203C28.7891 32.7736 29.1566 33.1406 29.6094 33.1406H35.8357C35.8575 33.1406 35.875 33.1581 35.875 33.1799V40.1013C35.875 40.1231 35.8575 40.1406 35.8357 40.1406H20.0549C20.0331 40.1406 20.0156 40.1231 20.0156 40.1013V33.1799C20.0156 33.1581 20.0331 33.1406 20.0549 33.1406H26.5469C27.0002 33.1406 27.3672 32.7736 27.3672 32.3203C27.3672 31.8674 27.0002 31.5 26.5469 31.5H20.0549C19.1287 31.5 18.375 32.2537 18.375 33.1799V40.1013C18.375 41.0276 19.1287 41.7812 20.0549 41.7812Z" fill="#282828"/>
<path id="Vector_11" d="M30.9353 4.92188C31.3882 4.92188 31.7556 4.55487 31.7556 4.10156C31.7556 3.64825 31.3882 3.28125 30.9353 3.28125H25.2222C24.7689 3.28125 24.4019 3.64825 24.4019 4.10156C24.4019 4.55487 24.7689 4.92188 25.2222 4.92188H30.9353Z" fill="#282828"/>
</g>
</svg>
