<svg width="54" height="54" viewBox="0 0 54 54" fill="none" xmlns="http://www.w3.org/2000/svg">
<g id="brand 1" clip-path="url(#clip0_22_123)">
<path id="Vector" d="M53.2912 31.9957L53.2642 31.9679C53.26 31.9636 53.2558 31.9594 53.2516 31.9552L47.855 26.4101C47.8533 26.4084 47.8516 26.4084 47.8499 26.4067C47.7723 26.3282 47.6812 26.265 47.5782 26.2211C47.4753 26.1772 47.3647 26.1561 47.2551 26.1553C47.2534 26.1553 47.2517 26.1544 47.25 26.1544H40.5051V15.9189L44.2555 18.4274C44.2623 18.4316 44.2707 18.4333 44.2766 18.4375C44.2817 18.4409 44.2842 18.4468 44.2901 18.4501C44.3323 18.4755 44.3779 18.489 44.4217 18.5058C44.4454 18.5151 44.4682 18.5295 44.4926 18.5362C44.5686 18.5581 44.6462 18.57 44.723 18.57C44.793 18.57 44.8622 18.5607 44.9297 18.5438C44.9525 18.5379 44.9744 18.5261 44.9972 18.5185C45.0402 18.5033 45.0833 18.4898 45.1229 18.4679C45.1491 18.4544 45.1718 18.4341 45.1955 18.4181C45.2292 18.3953 45.2638 18.3734 45.2942 18.3455C45.3178 18.3236 45.3381 18.2957 45.3592 18.2704C45.3802 18.2451 45.4056 18.224 45.4241 18.1953C45.4275 18.1911 45.4275 18.1861 45.43 18.181C45.4351 18.1734 45.4418 18.1683 45.4469 18.1607L50.5086 9.72324C50.5313 9.68527 50.5347 9.64309 50.5516 9.60259C50.5727 9.54859 50.5988 9.49712 50.6081 9.44143C50.6182 9.38827 50.6149 9.33681 50.614 9.28365C50.614 9.22881 50.6166 9.17565 50.6056 9.12165C50.5946 9.06934 50.5718 9.02209 50.5516 8.97231C50.5313 8.92168 50.5136 8.8719 50.4832 8.82634C50.4529 8.77993 50.4098 8.74281 50.3693 8.70315C50.339 8.67193 50.3179 8.63396 50.2816 8.60781L41.0054 1.84852C40.9927 1.83924 40.9784 1.8384 40.9657 1.8308C40.9193 1.80043 40.8679 1.78187 40.8147 1.76077C40.7607 1.73968 40.7093 1.71605 40.6527 1.70677C40.6384 1.70424 40.6283 1.69496 40.6131 1.69327L33.8512 0.849523C33.8318 0.846992 33.8141 0.854586 33.7956 0.853742C33.777 0.852898 33.761 0.842773 33.7424 0.842773H20.2399C20.223 0.842773 20.2095 0.851211 20.1926 0.852055C20.1791 0.852898 20.1673 0.847836 20.1538 0.849523L13.392 1.69327C13.3768 1.69496 13.3658 1.70424 13.3507 1.70762C13.2958 1.7169 13.2452 1.73968 13.192 1.76077C13.1389 1.78187 13.0857 1.80043 13.0385 1.8308C13.025 1.83924 13.0115 1.84009 12.9988 1.84852L3.72263 8.60612C3.68634 8.63227 3.66609 8.67109 3.63488 8.70146C3.59438 8.74196 3.55134 8.77909 3.52097 8.82549C3.49059 8.87106 3.47288 8.92084 3.45263 8.97146C3.43237 9.02124 3.40875 9.06765 3.39862 9.12081C3.38766 9.17481 3.39019 9.22796 3.39019 9.28281C3.38934 9.33596 3.38597 9.38827 3.39609 9.44143C3.40622 9.49712 3.43069 9.54859 3.45263 9.60174C3.4695 9.6414 3.47203 9.68443 3.49566 9.7224L8.55731 18.1599C8.56238 18.1675 8.56913 18.1734 8.57419 18.1801C8.57756 18.1844 8.57756 18.1894 8.58009 18.1945C8.59866 18.2232 8.62397 18.2451 8.64506 18.2696C8.667 18.2949 8.68641 18.3219 8.71003 18.3438C8.74041 18.3725 8.775 18.3936 8.80875 18.4164C8.83322 18.4333 8.856 18.4527 8.88131 18.4662C8.92181 18.4881 8.96484 18.5016 9.00703 18.5168C9.02981 18.5244 9.05175 18.5362 9.07453 18.5421C9.14203 18.559 9.21122 18.5683 9.28125 18.5683C9.35888 18.5683 9.4365 18.5565 9.51159 18.5345C9.53606 18.5278 9.55884 18.5134 9.58247 18.5041C9.62719 18.4873 9.67191 18.4729 9.71409 18.4485C9.72 18.4451 9.72253 18.4392 9.72759 18.4358C9.73519 18.4316 9.74278 18.4307 9.74869 18.4257L13.4992 15.9172V26.1536H6.75C6.74747 26.1553 6.74578 26.1561 6.74325 26.1561C6.64369 26.157 6.54497 26.1789 6.44963 26.2152C6.33572 26.2591 6.23278 26.3215 6.15009 26.4067C6.14841 26.4092 6.14672 26.4092 6.14503 26.4109L0.756 31.9485C0.745875 31.9586 0.736594 31.9679 0.726469 31.978L0.709594 31.9957C0.705375 31.9999 0.704531 32.0058 0.700312 32.0101C0.269156 32.464 0 33.074 0 33.749V50.6257C0 52.0213 1.13569 53.157 2.53125 53.157H51.4688C52.8643 53.157 54 52.0213 54 50.6257V33.749C54 33.0782 53.7334 32.4716 53.3064 32.0185C53.2997 32.0109 53.298 32.0025 53.2912 31.9957ZM15.1883 28.6865V14.3402C15.1883 14.3132 15.1757 14.2905 15.1732 14.2651C15.1672 14.2086 15.1554 14.1555 15.1394 14.0998C15.1217 14.0432 15.1023 13.9926 15.0744 13.9412C15.0618 13.9184 15.0601 13.8931 15.0458 13.8711C15.0306 13.8483 15.0069 13.8365 14.9901 13.8163C14.9529 13.7699 14.9133 13.7302 14.8669 13.6931C14.8247 13.6593 14.7833 13.6298 14.7369 13.6053C14.6897 13.58 14.6433 13.5623 14.5918 13.5463C14.5353 13.5286 14.4804 13.5176 14.4214 13.5117C14.3952 13.5091 14.3716 13.4965 14.3446 13.4965C14.3184 13.4965 14.2957 13.5091 14.2703 13.5117C14.213 13.5167 14.1581 13.5286 14.1024 13.5463C14.0476 13.5632 13.9961 13.5834 13.9455 13.6104C13.9236 13.6231 13.8974 13.6247 13.8755 13.6399L9.54872 16.5331L5.34009 9.51737L13.8181 3.34112L19.4628 2.63659C19.9327 6.37609 23.1255 9.28112 26.9907 9.28112C30.8568 9.28112 34.0504 6.37524 34.5195 2.63405L40.1878 3.34112L48.6658 9.51568L44.4572 16.5315L40.1304 13.6382C40.1085 13.6239 40.0832 13.6214 40.0604 13.6096C40.0098 13.5817 39.9583 13.5615 39.9018 13.5446C39.8469 13.5277 39.7929 13.5159 39.7373 13.5108C39.7111 13.5083 39.6883 13.4956 39.6613 13.4956C39.6335 13.4956 39.6098 13.5091 39.5828 13.5117C39.5246 13.5167 39.4698 13.5286 39.4149 13.5454C39.3626 13.5615 39.3154 13.58 39.269 13.6053C39.2217 13.6298 39.1812 13.6593 39.139 13.6931C39.0926 13.7302 39.053 13.7699 39.0158 13.8154C38.9981 13.8365 38.9745 13.8483 38.9602 13.8711C38.945 13.8931 38.9433 13.9184 38.9315 13.9412C38.9036 13.9918 38.8834 14.0432 38.8665 14.0989C38.8496 14.1546 38.8387 14.2078 38.8327 14.2643C38.8311 14.2905 38.8176 14.3132 38.8176 14.3394V28.6857H15.1883V28.6865ZM21.152 2.53027H32.8295C32.4186 5.38805 29.9599 7.59277 26.9907 7.59277C24.0216 7.59277 21.5637 5.38805 21.152 2.53027ZM13.5008 28.6865H11.815C11.3484 28.6865 10.9713 29.0637 10.9713 29.5303C10.9713 29.9969 11.3484 30.374 11.815 30.374H42.185C42.6516 30.374 43.0287 29.9969 43.0287 29.5303C43.0287 29.0637 42.6516 28.6865 42.185 28.6865H40.5051V27.8428H46.8931L50.1795 31.2178H3.82134L7.10606 27.8428H13.5008V28.6865ZM7.59375 50.6257H46.4062V51.4695H7.59375V50.6257ZM52.3125 50.6257C52.3125 51.0915 51.9345 51.4695 51.4688 51.4695H48.0938V49.782C48.0938 49.3154 47.7166 48.9382 47.25 48.9382H6.75C6.28341 48.9382 5.90625 49.3154 5.90625 49.782V51.4695H2.53125C2.0655 51.4695 1.6875 51.0915 1.6875 50.6257V33.749C1.6875 33.5221 1.77947 33.3179 1.92544 33.1668L1.94653 33.1449C2.09841 32.9972 2.30344 32.9053 2.53125 32.9053H51.4688C51.6982 32.9053 51.9058 32.9981 52.0577 33.1474L52.0712 33.1618C52.2197 33.3128 52.3125 33.5204 52.3125 33.749V50.6257Z" fill="#282828"/>
<path id="Vector_2" d="M6.77632 37.124H6.76789C6.30214 37.124 5.9292 37.5012 5.9292 37.9678C5.9292 38.4344 6.31057 38.8115 6.77717 38.8115C7.24292 38.8115 7.62092 38.4344 7.62092 37.9678C7.62092 37.5012 7.24207 37.124 6.77632 37.124Z" fill="#282828"/>
<path id="Vector_3" d="M10.1513 37.124H10.1429C9.67714 37.124 9.3042 37.5012 9.3042 37.9678C9.3042 38.4344 9.68557 38.8115 10.1522 38.8115C10.6179 38.8115 10.9959 38.4344 10.9959 37.9678C10.9959 37.5012 10.6171 37.124 10.1513 37.124Z" fill="#282828"/>
<path id="Vector_4" d="M47.2763 37.124H47.2679C46.8021 37.124 46.4292 37.5012 46.4292 37.9678C46.4292 38.4344 46.8106 38.8115 47.2772 38.8115C47.7429 38.8115 48.1209 38.4344 48.1209 37.9678C48.1209 37.5012 47.7421 37.124 47.2763 37.124Z" fill="#282828"/>
<path id="Vector_5" d="M43.9013 37.124H43.8929C43.4271 37.124 43.0542 37.5012 43.0542 37.9678C43.0542 38.4344 43.4356 38.8115 43.9022 38.8115C44.3679 38.8115 44.7459 38.4344 44.7459 37.9678C44.7459 37.5012 44.3671 37.124 43.9013 37.124Z" fill="#282828"/>
<path id="Vector_6" d="M35.4375 35.4365H18.5625C18.0959 35.4365 17.7188 35.8137 17.7188 36.2803V39.6553C17.7188 40.1219 18.0959 40.499 18.5625 40.499H35.4375C35.9041 40.499 36.2812 40.1219 36.2812 39.6553V36.2803C36.2812 35.8137 35.9041 35.4365 35.4375 35.4365ZM34.5938 38.8115H19.4062V37.124H34.5938V38.8115Z" fill="#282828"/>
</g>
<defs>
<clipPath id="clip0_22_123">
<rect width="54" height="54" fill="white"/>
</clipPath>
</defs>
</svg>
