<svg width="32" height="32" viewBox="0 0 32 32" fill="none" xmlns="http://www.w3.org/2000/svg">
<path d="M30.5929 23.2047L26.2856 18.9064C24.7473 17.3713 22.1322 17.9854 21.5169 19.981C21.0554 21.3626 19.5171 22.1302 18.1326 21.8231C15.056 21.0555 10.9025 17.0643 10.1334 13.8407C9.67187 12.459 10.5949 10.9239 11.9793 10.4635C13.9791 9.84945 14.5945 7.23981 13.0562 5.70473L8.74888 1.4065C7.51823 0.331947 5.67226 0.331947 4.59544 1.4065L1.67265 4.32316C-1.25015 7.39332 1.98031 15.5292 9.21038 22.7441C16.4404 29.959 24.5935 33.3362 27.6701 30.266L30.5929 27.3494C31.6698 26.1213 31.6698 24.2792 30.5929 23.2047Z" fill="white"/>
</svg>
