<svg width="44" height="44" viewBox="0 0 44 44" fill="none" xmlns="http://www.w3.org/2000/svg">
<g id="character-animator 1" clip-path="url(#clip0_22_112)">
<g id="Group">
<g id="Group_2">
<path id="Vector" d="M40.1328 0H3.86719C1.73482 0 0 1.73482 0 3.86719V40.1328C0 42.2652 1.73482 44 3.86719 44H40.1328C42.2652 44 44 42.2652 44 40.1328V3.86719C44 1.73482 42.2652 0 40.1328 0ZM41.4219 40.1328C41.4219 40.8436 40.8436 41.4219 40.1328 41.4219H3.86719C3.1564 41.4219 2.57812 40.8436 2.57812 40.1328V3.86719C2.57812 3.1564 3.1564 2.57812 3.86719 2.57812H40.1328C40.8436 2.57812 41.4219 3.1564 41.4219 3.86719V40.1328Z" fill="#282828"/>
</g>
</g>
<g id="Group_3">
<g id="Group_4">
<path id="Vector_2" d="M31.0234 18.1328C30.0846 18.1328 29.2044 18.3862 28.4453 18.8265V11.6875C28.4453 10.9756 27.8682 10.3984 27.1562 10.3984C26.4443 10.3984 25.8672 10.9756 25.8672 11.6875C25.8672 12.7798 25.8672 31.6372 25.8672 32.3125C25.8672 33.0244 26.4443 33.6016 27.1562 33.6016C27.8682 33.6016 28.4453 33.0244 28.4453 32.3125C28.4453 31.4065 28.4453 24.1551 28.4453 23.2891C28.4453 21.8675 29.6019 20.7109 31.0234 20.7109C32.445 20.7109 33.6016 21.8675 33.6016 23.2891V32.3125C33.6016 33.0244 34.1787 33.6016 34.8906 33.6016C35.6025 33.6016 36.1797 33.0244 36.1797 32.3125V23.2891C36.1797 20.4459 33.8666 18.1328 31.0234 18.1328Z" fill="#282828"/>
</g>
</g>
<g id="Group_5">
<g id="Group_6">
<path id="Vector_3" d="M22 24.5781C21.2881 24.5781 20.7109 25.1553 20.7109 25.8672C20.7109 28.7103 18.3978 31.0234 15.5547 31.0234C12.7115 31.0234 10.3984 28.7103 10.3984 25.8672V18.1328C10.3984 15.2897 12.7115 12.9766 15.5547 12.9766C18.3978 12.9766 20.7109 15.2897 20.7109 18.1328C20.7109 18.8447 21.2881 19.4219 22 19.4219C22.7119 19.4219 23.2891 18.8447 23.2891 18.1328C23.2891 13.8681 19.8194 10.3984 15.5547 10.3984C11.29 10.3984 7.82031 13.8681 7.82031 18.1328V25.8672C7.82031 30.1319 11.29 33.6016 15.5547 33.6016C19.8194 33.6016 23.2891 30.1319 23.2891 25.8672C23.2891 25.1553 22.7119 24.5781 22 24.5781Z" fill="#282828"/>
</g>
</g>
</g>
<defs>
<clipPath id="clip0_22_112">
<rect width="44" height="44" fill="white"/>
</clipPath>
</defs>
</svg>
