<svg width="31" height="31" viewBox="0 0 31 31" fill="none" xmlns="http://www.w3.org/2000/svg">
<g id="Group">
<path id="Vector" d="M15.2764 30.8175C23.5578 30.8175 30.2712 24.1042 30.2712 15.8228C30.2712 7.54148 23.5578 0.828125 15.2764 0.828125C6.9951 0.828125 0.281738 7.54148 0.281738 15.8228C0.281738 24.1042 6.9951 30.8175 15.2764 30.8175Z" fill="url(#paint0_linear_22_160)"/>
<path id="Vector_2" d="M22.4426 2.64844C23.6032 4.77785 24.2632 7.21903 24.2632 9.81491C24.2632 18.0961 17.5497 24.8096 9.26852 24.8096C6.67264 24.8096 4.23146 24.1496 2.10205 22.989C4.6444 27.6526 9.59029 30.8173 15.2762 30.8173C23.5574 30.8173 30.2709 24.1037 30.2709 15.8226C30.2709 10.1367 27.1062 5.19079 22.4426 2.64844Z" fill="url(#paint1_linear_22_160)"/>
</g>
<defs>
<linearGradient id="paint0_linear_22_160" x1="1.69233" y1="2.23871" x2="16.5588" y2="17.1052" gradientUnits="userSpaceOnUse">
<stop stop-color="#18CFFC"/>
<stop offset="1" stop-color="#4A98F7"/>
</linearGradient>
<linearGradient id="paint1_linear_22_160" x1="12.1568" y1="23.8884" x2="45.2656" y2="-1.69098" gradientUnits="userSpaceOnUse">
<stop stop-color="#0469BC" stop-opacity="0"/>
<stop offset="1" stop-color="#0469BC"/>
</linearGradient>
</defs>
</svg>
