<svg width="26" height="26" viewBox="0 0 26 26" fill="none" xmlns="http://www.w3.org/2000/svg">
<g id="instagram 2" clip-path="url(#clip0_22_267)">
<g id="Group">
<g id="Group_2">
<path id="Vector" d="M17.875 26H8.125C3.63838 26 0 22.3616 0 17.875V8.125C0 3.63837 3.63838 0 8.125 0H17.875C22.3616 0 26 3.63837 26 8.125V17.875C26 22.3616 22.3616 26 17.875 26ZM23.5625 8.125C23.5625 4.98875 21.0112 2.4375 17.875 2.4375H8.125C4.98875 2.4375 2.4375 4.98875 2.4375 8.125V17.875C2.4375 21.0113 4.98875 23.5625 8.125 23.5625H17.875C21.0112 23.5625 23.5625 21.0113 23.5625 17.875V8.125Z" fill="black"/>
</g>
</g>
<g id="Group_3">
<g id="Group_4">
<path id="Vector_2" d="M13 19.5C9.41037 19.5 6.5 16.5896 6.5 13C6.5 9.41037 9.41037 6.5 13 6.5C16.5896 6.5 19.5 9.41037 19.5 13C19.5 16.5896 16.5896 19.5 13 19.5ZM13 8.9375C10.7607 8.9375 8.9375 10.7607 8.9375 13C8.9375 15.2409 10.7607 17.0625 13 17.0625C15.2393 17.0625 17.0625 15.2409 17.0625 13C17.0625 10.7607 15.2393 8.9375 13 8.9375Z" fill="black"/>
</g>
</g>
<g id="Group_5">
<g id="Group_6">
<path id="Vector_3" d="M19.9872 19.1213C20.4656 19.1213 20.8533 19.509 20.8533 19.9874C20.8533 20.4657 20.4656 20.8535 19.9872 20.8535C19.5089 20.8535 19.1211 20.4657 19.1211 19.9874C19.1211 19.509 19.5089 19.1213 19.9872 19.1213Z" fill="black"/>
</g>
</g>
</g>
<defs>
<clipPath id="clip0_22_267">
<rect width="26" height="26" fill="white" transform="matrix(1 0 0 -1 0 26)"/>
</clipPath>
</defs>
</svg>
