<svg width="32" height="34" viewBox="0 0 32 34" fill="none" xmlns="http://www.w3.org/2000/svg">
<g id="love_icon-icons.com_67808 1" clip-path="url(#clip0_24_19)">
<path id="Vector" d="M16 33.217C24.8366 33.217 32 26.0536 32 17.217C32 8.38048 24.8366 1.21704 16 1.21704C7.16344 1.21704 0 8.38048 0 17.217C0 26.0536 7.16344 33.217 16 33.217Z" fill="url(#paint0_linear_24_19)"/>
<path id="Vector_2" d="M17.6301 25.0491C23.5771 23.8121 27.3961 17.9871 26.1581 12.0391L4.61914 16.5211C5.85714 22.4681 11.6821 26.2871 17.6301 25.0491Z" fill="#F52C5B"/>
<path id="Vector_3" d="M16.0001 17.2171C19.3451 16.5221 22.6491 17.4241 25.1211 19.4051C26.2731 17.2221 26.7001 14.6421 26.1581 12.0391L4.61914 16.5211C5.16114 19.1251 6.58114 21.3191 8.50814 22.8621C9.98414 20.0591 12.6551 17.9131 16.0001 17.2171Z" fill="#212731"/>
<path id="Vector_4" d="M11.0961 3.6741C13.1391 6.2771 7.49609 10.6071 7.49609 10.6071C7.49609 10.6071 0.595094 8.8871 1.43109 5.6841C2.23309 2.6131 6.23309 4.5341 6.23309 4.5341C6.23309 4.5341 9.13609 1.1771 11.0961 3.6741Z" fill="#F52C5B"/>
<path id="Vector_5" d="M23.8221 1.02603C25.8661 3.63003 20.2231 7.96003 20.2231 7.96003C20.2231 7.96003 13.3221 6.23903 14.1581 3.03703C14.9601 -0.0339732 18.9601 1.88703 18.9601 1.88703C18.9601 1.88703 21.8631 -1.46997 23.8221 1.02603Z" fill="#F52C5B"/>
</g>
<defs>
<linearGradient id="paint0_linear_24_19" x1="24.0009" y1="3.35934" x2="7.9985" y2="31.0764" gradientUnits="userSpaceOnUse">
<stop stop-color="#FFE254"/>
<stop offset="1" stop-color="#FFB255"/>
</linearGradient>
<clipPath id="clip0_24_19">
<rect width="32" height="33.217" fill="white"/>
</clipPath>
</defs>
</svg>
