<svg width="340" height="340" viewBox="0 0 340 340" fill="none" xmlns="http://www.w3.org/2000/svg">
<g clip-path="url(#clip0_22_226)">
<path d="M29.8239 48.2658C26.6271 41.6577 29.3916 33.7096 35.9997 30.5134C38.1566 29.4702 40.4536 29.0724 42.6842 29.2251C44.7879 24.5481 48.4814 20.5558 53.4586 18.1479C64.7091 12.7046 78.2421 17.4128 83.6854 28.6633C85.0009 31.3827 85.7187 34.2355 85.8987 37.0744C90.9203 36.907 95.8085 39.6429 98.138 44.4567C101.29 50.9705 98.5644 58.8051 92.0499 61.9568C86.1344 64.8189 79.1405 62.822 75.544 57.554C74.7883 58.0388 73.9994 58.4877 73.1706 58.8895C64.2761 63.1926 53.9586 61.1466 47.3359 54.5432C40.777 57.5607 32.9829 54.7935 29.8239 48.2658Z" fill="url(#paint0_linear_22_226)"/>
<path d="M33.1664 24.0642C39.301 24.0642 44.2741 19.0911 44.2741 12.9564C44.2741 6.82175 39.301 1.84863 33.1664 1.84863C27.0317 1.84863 22.0586 6.82175 22.0586 12.9564C22.0586 19.0911 27.0317 24.0642 33.1664 24.0642Z" fill="url(#paint1_linear_22_226)"/>
<path d="M99.1547 113.642H72.3644C68.5733 113.642 65.5 110.569 65.5 106.778V64.0461C65.5 60.2549 68.5733 57.1816 72.3644 57.1816H99.1547C102.946 57.1816 106.019 60.2549 106.019 64.0461V106.778C106.02 110.569 102.946 113.642 99.1547 113.642Z" fill="url(#paint2_linear_22_226)"/>
<path d="M90.6673 235.484H10.667V338.151H90.6673V235.484Z" fill="url(#paint3_linear_22_226)"/>
<path d="M94.0001 257.483H10.8462C7.43885 257.483 4.99975 254.194 5.98854 250.932L14.2402 223.752C14.8896 221.612 16.8619 220.15 19.0978 220.15H94.0007V257.483H94.0001Z" fill="url(#paint4_linear_22_226)"/>
<path d="M329.334 235.484H249.333V338.151H329.334V235.484Z" fill="url(#paint5_linear_22_226)"/>
<path d="M329.333 311.253L275.583 257.502H249.333V338.15H329.333V311.253Z" fill="url(#paint6_linear_22_226)"/>
<path d="M246 257.483H329.154C332.561 257.483 335 254.194 334.012 250.932L325.76 223.752C325.11 221.612 323.138 220.15 320.902 220.15H246V257.483Z" fill="url(#paint7_linear_22_226)"/>
<path d="M275.627 125.735V338.148H64.4004V125.735L170 22.2017L275.627 125.735Z" fill="url(#paint8_linear_22_226)"/>
<path d="M64.4004 125.735V137.905L264.644 338.148H275.627V125.735L170 22.2017L64.4004 125.735Z" fill="url(#paint9_linear_22_226)"/>
<path d="M275.627 189.931V338.149H208.94L64.4004 193.61V189.931H275.627Z" fill="url(#paint10_linear_22_226)"/>
<path d="M242.989 338.149H139.685L82.8985 281.362C80.3983 279.741 78.7349 276.929 78.7349 273.739V228.035C78.7349 223.028 82.8115 218.951 87.8186 218.951H120.769C123.966 218.951 126.778 220.615 128.399 223.115L128.152 223.311L242.989 338.149Z" fill="url(#paint11_linear_22_226)"/>
<path d="M120.769 277.498H87.8215C85.7436 277.498 84.0596 275.814 84.0596 273.736V228.038C84.0596 225.96 85.7443 224.276 87.8215 224.276H120.769C122.847 224.276 124.531 225.961 124.531 228.038V273.736C124.532 275.814 122.847 277.498 120.769 277.498Z" fill="#503837"/>
<path d="M120.768 282.824H87.8209C82.8106 282.824 78.7339 278.747 78.7339 273.737V228.039C78.7339 223.029 82.8106 218.952 87.8209 218.952H120.768C125.779 218.952 129.855 223.029 129.855 228.039V273.737C129.856 278.747 125.779 282.824 120.768 282.824ZM89.3848 272.173H119.205V229.602H89.3848V272.173Z" fill="white"/>
<path d="M275.634 237.803V338.149H272.393L215.606 281.362C213.099 279.741 211.435 276.929 211.435 273.739V228.035C211.435 223.028 215.511 218.951 220.526 218.951H253.468C256.666 218.951 259.478 220.615 261.099 223.115L261.23 223.217L261.142 223.312L275.634 237.803Z" fill="url(#paint12_linear_22_226)"/>
<path d="M253.47 277.498H220.523C218.445 277.498 216.761 275.814 216.761 273.736V228.038C216.761 225.96 218.445 224.276 220.523 224.276H253.47C255.548 224.276 257.232 225.961 257.232 228.038V273.736C257.233 275.814 255.548 277.498 253.47 277.498Z" fill="#503837"/>
<path d="M253.472 282.824H220.524C215.514 282.824 211.437 278.747 211.437 273.737V228.039C211.437 223.029 215.514 218.952 220.524 218.952H253.472C258.482 218.952 262.559 223.029 262.559 228.039V273.737C262.559 278.747 258.482 282.824 253.472 282.824ZM222.087 272.173H251.907V229.602H222.087V272.173Z" fill="white"/>
<path d="M148.004 338.146V222.753C148.004 217.663 152.13 213.537 157.22 213.537H182.811C187.901 213.537 192.026 217.663 192.026 222.753V338.146H148.004Z" fill="#816965"/>
<path d="M197.476 338.146H186.575V225.895C186.575 222.097 183.467 218.988 179.668 218.988H160.361C156.546 218.988 153.454 222.08 153.454 225.895V338.146H142.553V218.686C142.553 212.832 147.299 208.087 153.152 208.087H186.876C192.73 208.087 197.475 212.832 197.475 218.686V338.146H197.476Z" fill="#503837"/>
<path d="M162.207 261.822C164.951 261.822 167.176 259.596 167.176 256.852C167.176 254.107 164.951 251.882 162.207 251.882C159.462 251.882 157.237 254.107 157.237 256.852C157.237 259.596 159.462 261.822 162.207 261.822Z" fill="white"/>
<path d="M275.634 309.064H64.3936V338.145H275.634V309.064Z" fill="#654E48"/>
<path d="M62.0805 326.783C62.0805 330.797 61.3215 334.627 59.935 338.147H2.14559C0.759023 334.627 0 330.797 0 326.783C0 322.875 0.720508 319.139 2.04 315.698C6.50184 304.024 17.8042 295.743 31.0409 295.743C44.2777 295.743 55.5794 304.025 60.0419 315.698C61.3607 319.14 62.0805 322.876 62.0805 326.783Z" fill="url(#paint13_linear_22_226)"/>
<path d="M82.0969 329.904C82.0969 332.815 81.5464 335.593 80.541 338.147H38.6194C37.614 335.594 37.0635 332.815 37.0635 329.904C37.0635 327.069 37.5861 324.359 38.5437 321.862C41.7803 313.394 49.9788 307.387 59.5812 307.387C69.1835 307.387 77.382 313.394 80.6187 321.862C81.5743 324.359 82.0969 327.069 82.0969 329.904Z" fill="url(#paint14_linear_22_226)"/>
<path d="M340 324.9C340 329.579 339.115 334.043 337.499 338.146H270.134C268.519 334.044 267.633 329.579 267.633 324.9C267.633 320.345 268.473 315.991 270.011 311.978C275.213 298.37 288.387 288.717 303.817 288.717C319.246 288.717 332.421 298.37 337.622 311.978C339.16 315.991 340 320.345 340 324.9Z" fill="url(#paint15_linear_22_226)"/>
<path d="M275.626 156.121V268.701L139.753 132.821C137.086 131.215 135.293 128.301 135.293 124.968V99.4411C135.293 80.3075 150.867 64.7412 170 64.7412C180.36 64.7412 189.674 69.3146 196.04 76.5343L275.626 156.121Z" fill="url(#paint16_linear_22_226)"/>
<path d="M260.146 145.168H82.5905C78.3564 145.168 74.9126 148.612 74.9126 152.846V186.934H80.2457V152.846C80.2457 151.553 81.2976 150.501 82.5905 150.501H93.2115V186.934H98.5446V150.501H114.388V186.934H119.722V150.501H135.565V186.934H140.898V150.501H156.742V186.934H162.075V150.501H177.92V186.934H183.253V150.501H199.097V186.934H204.43V150.501H220.274V186.934H225.607V150.501H241.451V186.934H246.784V150.501H260.144C261.436 150.501 262.488 151.553 262.488 152.846V186.934H267.821V152.846C267.824 148.612 264.38 145.168 260.146 145.168Z" fill="#654E48"/>
<path d="M280.005 181.401V198.5C280.005 201.042 277.945 203.101 275.404 203.101H64.5969C62.0555 203.101 59.9956 201.042 59.9956 198.5V181.401C59.9956 178.859 62.0555 176.799 64.5969 176.799H275.404C277.945 176.799 280.005 178.859 280.005 181.401Z" fill="url(#paint17_linear_22_226)"/>
<path d="M313.444 144.253L177.056 7.81986C173.169 3.93244 166.866 3.93244 162.978 7.81986L26.556 144.242C24.0126 146.785 24.0126 150.908 26.556 153.451L32.3698 159.265C34.9132 161.809 39.0363 161.809 41.5797 159.265L168.163 32.6817C169.187 31.6584 170.846 31.6584 171.869 32.6817L298.42 159.276C300.963 161.819 305.086 161.819 307.63 159.276L313.444 153.462C315.988 150.919 315.988 146.796 313.444 144.253Z" fill="url(#paint18_linear_22_226)"/>
<path d="M177.057 7.82002C175.113 5.87631 172.566 4.90479 170.018 4.90479V31.9155C170.688 31.9155 171.359 32.1719 171.871 32.6832L298.421 159.277C300.964 161.821 305.087 161.821 307.631 159.277L313.444 153.464C315.988 150.92 315.988 146.797 313.444 144.254L177.057 7.82002Z" fill="url(#paint19_linear_22_226)"/>
<path d="M195.522 128.609H144.479C142.466 128.609 140.835 126.977 140.835 124.965V99.4431C140.835 83.335 153.894 70.2769 170.002 70.2769C186.11 70.2769 199.168 83.335 199.168 99.4431V124.965C199.167 126.977 197.534 128.609 195.522 128.609Z" fill="#654E48"/>
<path d="M170 64.7393C150.864 64.7393 135.297 80.3075 135.297 99.4425V124.964C135.297 130.027 139.415 134.146 144.479 134.146H195.522C200.586 134.146 204.704 130.027 204.704 124.964V99.4425C204.703 80.3069 189.136 64.7393 170 64.7393ZM193.437 96.4894H175.538V76.4766C184.969 78.7516 192.21 86.6965 193.437 96.4894ZM164.462 76.4766V96.4894H146.563C147.791 86.6965 155.03 78.7516 164.462 76.4766ZM146.372 107.565H164.462V123.071H146.372V107.565ZM175.538 123.071V107.565H193.628V123.071H175.538Z" fill="white"/>
</g>
<defs>
<linearGradient id="paint0_linear_22_226" x1="16.9788" y1="23.1824" x2="147.783" y2="68.6894" gradientUnits="userSpaceOnUse">
<stop stop-color="#E2EDF2"/>
<stop offset="1" stop-color="#9FC7E2"/>
</linearGradient>
<linearGradient id="paint1_linear_22_226" x1="29.5632" y1="11.7099" x2="48.8228" y2="18.4124" gradientUnits="userSpaceOnUse">
<stop stop-color="#E2EDF2"/>
<stop offset="1" stop-color="#9FC7E2"/>
</linearGradient>
<linearGradient id="paint2_linear_22_226" x1="74.9054" y1="74.5701" x2="88.3451" y2="88.0032" gradientUnits="userSpaceOnUse">
<stop stop-color="#816965"/>
<stop offset="1" stop-color="#654E48"/>
</linearGradient>
<linearGradient id="paint3_linear_22_226" x1="50.6658" y1="248.493" x2="50.6658" y2="339.665" gradientUnits="userSpaceOnUse">
<stop stop-color="#FFE7A5"/>
<stop offset="0.966" stop-color="#FFBF5C"/>
</linearGradient>
<linearGradient id="paint4_linear_22_226" x1="49.8823" y1="224.881" x2="49.8823" y2="258.04" gradientUnits="userSpaceOnUse">
<stop stop-color="#FF5D00"/>
<stop offset="1" stop-color="#D54003"/>
</linearGradient>
<linearGradient id="paint5_linear_22_226" x1="289.327" y1="248.493" x2="289.327" y2="339.665" gradientUnits="userSpaceOnUse">
<stop stop-color="#FFE7A5"/>
<stop offset="0.966" stop-color="#FFBF5C"/>
</linearGradient>
<linearGradient id="paint6_linear_22_226" x1="287.46" y1="320.112" x2="204.535" y2="246.214" gradientUnits="userSpaceOnUse">
<stop stop-color="#FF5D00" stop-opacity="0"/>
<stop offset="1" stop-color="#D54003"/>
</linearGradient>
<linearGradient id="paint7_linear_22_226" x1="290.111" y1="224.881" x2="290.111" y2="258.04" gradientUnits="userSpaceOnUse">
<stop stop-color="#FF5D00"/>
<stop offset="1" stop-color="#D54003"/>
</linearGradient>
<linearGradient id="paint8_linear_22_226" x1="170.01" y1="182.368" x2="170.01" y2="406.023" gradientUnits="userSpaceOnUse">
<stop stop-color="#FFE7A5"/>
<stop offset="0.966" stop-color="#FFBF5C"/>
<stop offset="1" stop-color="#DB9E36"/>
</linearGradient>
<linearGradient id="paint9_linear_22_226" x1="147.183" y1="108.997" x2="86.0376" y2="47.8519" gradientUnits="userSpaceOnUse">
<stop stop-color="#FF5D00" stop-opacity="0"/>
<stop offset="1" stop-color="#D54003"/>
</linearGradient>
<linearGradient id="paint10_linear_22_226" x1="177.961" y1="241.127" x2="154.035" y2="92.6171" gradientUnits="userSpaceOnUse">
<stop stop-color="#FF5D00" stop-opacity="0"/>
<stop offset="1" stop-color="#D54003"/>
</linearGradient>
<linearGradient id="paint11_linear_22_226" x1="145.444" y1="292.039" x2="50.1529" y2="196.747" gradientUnits="userSpaceOnUse">
<stop stop-color="#FF5D00" stop-opacity="0"/>
<stop offset="1" stop-color="#D54003"/>
</linearGradient>
<linearGradient id="paint12_linear_22_226" x1="262.49" y1="276.384" x2="201.478" y2="215.372" gradientUnits="userSpaceOnUse">
<stop stop-color="#FF5D00" stop-opacity="0"/>
<stop offset="1" stop-color="#D54003"/>
</linearGradient>
<linearGradient id="paint13_linear_22_226" x1="13.5348" y1="307.46" x2="51.838" y2="345.759" gradientUnits="userSpaceOnUse">
<stop stop-color="#9EB644"/>
<stop offset="1" stop-color="#738611"/>
</linearGradient>
<linearGradient id="paint14_linear_22_226" x1="46.8801" y1="315.884" x2="74.6662" y2="343.67" gradientUnits="userSpaceOnUse">
<stop stop-color="#9EB644"/>
<stop offset="1" stop-color="#738611"/>
</linearGradient>
<linearGradient id="paint15_linear_22_226" x1="283.407" y1="302.373" x2="328.052" y2="347.025" gradientUnits="userSpaceOnUse">
<stop stop-color="#9EB644"/>
<stop offset="1" stop-color="#738611"/>
</linearGradient>
<linearGradient id="paint16_linear_22_226" x1="218.528" y1="155.462" x2="120.844" y2="57.7776" gradientUnits="userSpaceOnUse">
<stop stop-color="#FF5D00" stop-opacity="0"/>
<stop offset="1" stop-color="#D54003"/>
</linearGradient>
<linearGradient id="paint17_linear_22_226" x1="169.997" y1="179.601" x2="169.997" y2="214.494" gradientUnits="userSpaceOnUse">
<stop stop-color="#FF5D00"/>
<stop offset="1" stop-color="#D54003"/>
</linearGradient>
<linearGradient id="paint18_linear_22_226" x1="169.996" y1="97.1898" x2="169.996" y2="215.647" gradientUnits="userSpaceOnUse">
<stop stop-color="#FF5D00"/>
<stop offset="1" stop-color="#D54003"/>
</linearGradient>
<linearGradient id="paint19_linear_22_226" x1="271.882" y1="118.222" x2="200.284" y2="46.6248" gradientUnits="userSpaceOnUse">
<stop stop-color="#FF5D00" stop-opacity="0"/>
<stop offset="1" stop-color="#D54003"/>
</linearGradient>
<clipPath id="clip0_22_226">
<rect width="340" height="340" fill="white"/>
</clipPath>
</defs>
</svg>
