<svg width="60" height="60" viewBox="0 0 60 60" fill="none" xmlns="http://www.w3.org/2000/svg">
<g id="megaphone 1">
<g id="Group">
<g id="Group_2">
<path id="Vector" d="M52.3801 23.6616L32.498 3.77944C30.4426 1.72397 27.0979 1.72385 25.0423 3.77944C23.1945 5.62713 23.0353 8.44513 24.3999 10.4574L24.3722 10.5958C22.9388 17.7635 19.4491 24.2843 14.2801 29.4532L5.16066 38.5726C3.10027 40.6331 3.09992 43.9678 5.16066 46.0283L10.131 50.9987C12.1913 53.059 15.5262 53.0592 17.5867 50.9987L18.8294 49.756L27.5277 58.4543C29.5881 60.5149 32.9228 60.515 34.9833 58.4543C37.0389 56.3989 37.0389 53.0542 34.9833 50.9988L31.2555 47.2709L32.4981 46.0283C34.5585 43.968 34.5587 40.6333 32.4981 38.5727L31.6537 37.7281C35.8078 34.8197 40.5257 32.7948 45.5639 31.7871L45.7041 31.7591C47.761 33.1479 50.5725 32.9246 52.3801 31.117H52.3802C54.4354 29.0617 54.4354 25.7171 52.3801 23.6616ZM15.1015 48.5135C14.4148 49.2001 13.3029 49.2002 12.6162 48.5133L7.64585 43.543C6.95901 42.856 6.95901 41.7446 7.64585 41.0578L16.3441 32.3594L23.7998 39.8151C22.9487 40.6661 15.9735 47.6414 15.1015 48.5135ZM32.498 53.4838C33.1831 54.1689 33.1831 55.2838 32.498 55.969C31.8129 56.6541 30.6979 56.6541 30.0128 55.969L21.3145 47.2707L23.7998 44.7855L32.498 53.4838ZM26.285 42.3003C26.8132 41.772 27.604 40.9629 28.8521 39.8969L30.0128 41.0578C30.6996 41.7446 30.6996 42.856 30.0128 43.543L28.7701 44.7856L26.285 42.3003ZM26.3596 37.4047L18.7544 29.7995C22.83 25.0933 25.7487 19.5381 27.3102 13.5029L42.6561 28.8489C36.621 30.4103 31.0658 33.3289 26.3596 37.4047ZM49.8946 28.6317C49.2077 29.3184 48.0962 29.3184 47.4094 28.6317L27.5275 8.74982C26.8407 8.06287 26.8407 6.95146 27.5275 6.26463C28.2143 5.57779 29.326 5.57779 30.0128 6.26463L49.8946 26.1464C50.5796 26.8316 50.5796 27.9464 49.8946 28.6317Z" fill="#282828"/>
</g>
</g>
<g id="Group_3">
<g id="Group_4">
<path id="Vector_2" d="M17.5861 38.5728C16.9 37.8865 15.7872 37.8865 15.101 38.5728L12.6158 41.058C11.9295 41.7442 11.9295 42.8569 12.6158 43.5432C13.3019 44.2294 14.4148 44.2294 15.101 43.5432L17.5861 41.058C18.2724 40.3717 18.2724 39.259 17.5861 38.5728Z" fill="#282828"/>
</g>
</g>
<g id="Group_5">
<g id="Group_6">
<path id="Vector_3" d="M40.5689 0C39.5983 0 38.8115 0.786795 38.8115 1.75734V5.27202C38.8115 6.24257 39.5983 7.02936 40.5689 7.02936C41.5394 7.02936 42.3262 6.24257 42.3262 5.27202V1.75734C42.3262 0.786795 41.5394 0 40.5689 0Z" fill="#282828"/>
</g>
</g>
<g id="Group_7">
<g id="Group_8">
<path id="Vector_4" d="M54.6275 14.0586H51.1128C50.1423 14.0586 49.3555 14.8454 49.3555 15.8159C49.3555 16.7865 50.1423 17.5733 51.1128 17.5733H54.6275C55.598 17.5733 56.3848 16.7865 56.3848 15.8159C56.3848 14.8454 55.5979 14.0586 54.6275 14.0586Z" fill="#282828"/>
</g>
</g>
<g id="Group_9">
<g id="Group_10">
<path id="Vector_5" d="M52.3564 4.02934C51.6702 3.34309 50.5574 3.34309 49.8712 4.02934L46.3565 7.54402C45.6702 8.23027 45.6702 9.34296 46.3565 10.0292C47.0426 10.7155 48.1554 10.7156 48.8417 10.0292L52.3564 6.51453C53.0426 5.82828 53.0426 4.7157 52.3564 4.02934Z" fill="#282828"/>
</g>
</g>
</g>
</svg>
