<svg width="32" height="32" viewBox="0 0 32 32" fill="none" xmlns="http://www.w3.org/2000/svg">
<g id="pinterest 1" clip-path="url(#clip0_22_286)">
<path id="Vector" d="M16.4347 0C7.66267 0.00133333 3 5.62133 3 11.7493C3 14.5907 4.588 18.136 7.13067 19.26C7.856 19.5867 7.76 19.188 8.384 16.8013C8.43333 16.6027 8.408 16.4307 8.248 16.2453C4.61333 12.0413 7.53867 3.39867 15.916 3.39867C28.04 3.39867 25.7747 20.1747 18.0253 20.1747C16.028 20.1747 14.54 18.6067 15.0107 16.6667C15.5813 14.356 16.6987 11.872 16.6987 10.2067C16.6987 6.00933 10.4453 6.632 10.4453 12.1933C10.4453 13.912 11.0533 15.072 11.0533 15.072C11.0533 15.072 9.04133 23.2 8.668 24.7187C8.036 27.2893 8.75333 31.4507 8.816 31.8093C8.85467 32.0067 9.076 32.0693 9.2 31.9067C9.39867 31.6467 11.8307 28.1773 12.512 25.6693C12.76 24.756 13.7773 21.0493 13.7773 21.0493C14.448 22.26 16.3813 23.2733 18.4413 23.2733C24.5693 23.2733 28.9987 17.8867 28.9987 11.2027C28.9773 4.79467 23.4933 0 16.4347 0V0Z" fill="black"/>
</g>
<defs>
<clipPath id="clip0_22_286">
<rect width="32" height="32" fill="white"/>
</clipPath>
</defs>
</svg>
