<svg width="34" height="28" viewBox="0 0 34 28" fill="none" xmlns="http://www.w3.org/2000/svg">
<path id="Vector" d="M33 4.078C31.81 4.6 30.542 4.946 29.22 5.114C30.58 4.302 31.618 3.026 32.106 1.488C30.838 2.244 29.438 2.778 27.946 3.076C26.742 1.794 25.026 1 23.154 1C19.522 1 16.598 3.948 16.598 7.562C16.598 8.082 16.642 8.582 16.75 9.058C11.296 8.792 6.47 6.178 3.228 2.196C2.662 3.178 2.33 4.302 2.33 5.512C2.33 7.784 3.5 9.798 5.244 10.964C4.19 10.944 3.156 10.638 2.28 10.156C2.28 10.176 2.28 10.202 2.28 10.228C2.28 13.416 4.554 16.064 7.536 16.674C7.002 16.82 6.42 16.89 5.816 16.89C5.396 16.89 4.972 16.866 4.574 16.778C5.424 19.376 7.836 21.286 10.704 21.348C8.472 23.094 5.638 24.146 2.57 24.146C2.032 24.146 1.516 24.122 1 24.056C3.906 25.93 7.35 27 11.064 27C23.136 27 29.736 17 29.736 8.332C29.736 8.042 29.726 7.762 29.712 7.484C31.014 6.56 32.108 5.406 33 4.078Z" stroke="black" stroke-width="2" stroke-linejoin="round"/>
</svg>
