<svg width="44" height="44" viewBox="0 0 44 44" fill="none" xmlns="http://www.w3.org/2000/svg">
<path d="M0 2.53027V41.4691H44V2.53027H0ZM29.1673 5.1084L24.3164 10.9613H2.57812V5.1084H29.1673ZM41.4219 38.8909H2.57812V13.5394H25.5281L32.5158 5.1084H41.4219V38.8909Z" fill="#282828"/>
<path d="M5.52881 6.74951H8.10693V9.34199H5.52881V6.74951Z" fill="#282828"/>
<path d="M10.2837 6.74951H12.8618V9.34199H10.2837V6.74951Z" fill="#282828"/>
<path d="M15.0391 6.74951H17.6172V9.34199H15.0391V6.74951Z" fill="#282828"/>
<path d="M17.5825 27.9727C17.5825 29.181 16.5995 30.1641 15.3911 30.1641C14.1827 30.1641 13.1997 29.181 13.1997 27.9727V19.9375H10.6216V27.9727C10.6216 30.6026 12.7612 32.7422 15.3911 32.7422C18.0211 32.7422 20.1606 30.6026 20.1606 27.9727V19.9375H17.5825V27.9727Z" fill="#282828"/>
<path d="M29.8962 19.8945L27.7919 23.6843L25.6877 19.8945H22.7388L26.3175 26.3398L22.7388 32.7852H25.6877L27.7919 28.9954L29.8962 32.7852H32.8452L29.2664 26.3398L32.8452 19.8945H29.8962Z" fill="#282828"/>
</svg>
