<svg width="538" height="390" viewBox="0 0 538 390" fill="none" xmlns="http://www.w3.org/2000/svg">
<g filter="url(#filter0_d_22_73)">
<path d="M450 0H88C48.402 0 28.603 0 16.3015 12.3015C4 24.603 4 44.402 4 84V298C4 337.598 4 357.397 16.3015 369.698C28.603 382 48.402 382 88 382H450C489.598 382 509.397 382 521.698 369.698C534 357.397 534 337.598 534 298V84C534 44.402 534 24.603 521.698 12.3015C509.397 0 489.598 0 450 0Z" fill="url(#paint0_radial_22_73)"/>
</g>
<defs>
<filter id="filter0_d_22_73" x="0" y="0" width="538" height="390" filterUnits="userSpaceOnUse" color-interpolation-filters="sRGB">
<feFlood flood-opacity="0" result="BackgroundImageFix"/>
<feColorMatrix in="SourceAlpha" type="matrix" values="0 0 0 0 0 0 0 0 0 0 0 0 0 0 0 0 0 0 127 0" result="hardAlpha"/>
<feOffset dy="4"/>
<feGaussianBlur stdDeviation="2"/>
<feColorMatrix type="matrix" values="0 0 0 0 0 0 0 0 0 0 0 0 0 0 0 0 0 0 0.25 0"/>
<feBlend mode="normal" in2="BackgroundImageFix" result="effect1_dropShadow_22_73"/>
<feBlend mode="normal" in="SourceGraphic" in2="effect1_dropShadow_22_73" result="shape"/>
</filter>
<radialGradient id="paint0_radial_22_73" cx="0" cy="0" r="1" gradientUnits="userSpaceOnUse" gradientTransform="translate(266.173 170.298) scale(272.068 190.163)">
<stop stop-color="#FDFDFD"/>
<stop offset="1" stop-color="#FCE8E6"/>
</radialGradient>
</defs>
</svg>
