<svg width="48" height="48" viewBox="0 0 48 48" fill="none" xmlns="http://www.w3.org/2000/svg">
<g clip-path="url(#clip0_22_108)">
<path d="M45.9418 1.11987C44.5526 -0.269485 42.3572 -0.380007 40.8354 0.863109L27.4048 11.8341H4.6913C2.62119 11.8341 0.937012 13.5178 0.937012 15.5873V38.2152C0.937012 40.2848 2.62119 41.9685 4.6913 41.9685H15.361V45.1872H12.9961C12.2196 45.1872 11.59 45.8168 11.59 46.5933C11.59 47.3699 12.2196 47.9995 12.9961 47.9995H28.043C28.8195 47.9995 29.4491 47.3699 29.4491 46.5933C29.4491 45.8168 28.8195 45.1872 28.043 45.1872H25.678V41.9685H36.3478C38.418 41.9685 40.1022 40.2848 40.1022 38.2152V13.6969L46.1997 6.22461C47.4414 4.70308 47.3306 2.50847 45.9418 1.11987ZM26.4989 17.4621C26.5421 16.6147 26.9282 15.853 27.5878 15.3158L29.9273 13.4047L33.6626 17.1401L31.7471 19.4875C31.2107 20.1432 30.4493 20.5276 29.6033 20.5698C28.7564 20.6126 27.9611 20.3055 27.3621 19.7064C26.7622 19.1065 26.4555 18.3094 26.4989 17.4621ZM25.3697 26.5346C24.7466 27.1577 23.7088 27.4446 22.2854 27.3875C21.2066 27.3441 20.2827 27.4199 19.4999 27.561C19.6409 26.7783 19.7167 25.8538 19.6734 24.7755C19.6162 23.352 19.9031 22.3144 20.5262 21.6912C21.1731 21.0444 22.0332 20.6881 22.948 20.6881C23.8628 20.6881 24.7228 21.0443 25.3696 21.6912C26.705 23.0266 26.705 25.1993 25.3697 26.5346ZM22.8658 45.1873H18.1733V41.9685H22.8658V45.1873ZM37.2899 38.2152C37.2899 38.7341 36.8673 39.1562 36.3478 39.1562H4.6913C4.17187 39.1562 3.74928 38.7341 3.74928 38.2152V37.0155H37.2899V38.2152ZM37.2899 34.2032H3.74928V15.5873C3.74928 15.0684 4.17187 14.6463 4.6913 14.6463H24.5064C24.0252 15.4496 23.7389 16.3659 23.6902 17.3187C23.6799 17.5203 23.6805 17.7214 23.6913 17.9211C23.4463 17.8922 23.1985 17.8757 22.9481 17.8757C21.2821 17.8757 19.7158 18.5245 18.5378 19.7026C17.3368 20.9035 16.7736 22.6483 16.8635 24.8883C16.9834 27.8699 15.9948 29.0667 15.9178 29.1552C15.3916 29.7059 15.3992 30.579 15.9406 31.1204C16.2151 31.395 16.575 31.5323 16.9349 31.5323C17.2845 31.5323 17.6343 31.4027 17.9057 31.1434C17.9937 31.0667 19.1908 30.0779 22.1726 30.1975C24.4134 30.2877 26.1574 29.7243 27.3585 28.5233C28.7617 27.12 29.3534 25.209 29.1372 23.3762C29.2435 23.3821 29.3501 23.3858 29.4571 23.3858C29.5524 23.3858 29.648 23.3835 29.7436 23.3787C31.3696 23.2975 32.8933 22.5283 33.9251 21.2669L37.2901 17.1433L37.2899 34.2032ZM17.929 31.1205C17.929 31.1205 17.9221 31.1283 17.9073 31.1419C17.9146 31.1348 17.9218 31.1277 17.929 31.1205ZM15.9405 29.1319C15.9332 29.1391 15.9262 29.1463 15.9192 29.1535C15.9328 29.1388 15.9405 29.1319 15.9405 29.1319ZM44.0208 4.44669L35.4496 14.9501L32.1162 11.6168L42.6145 3.04112C42.8 2.88954 43.0237 2.81473 43.2468 2.81473C43.5031 2.81473 43.7583 2.91363 43.9531 3.10843C44.3173 3.47252 44.3464 4.04782 44.0208 4.44669Z" fill="#282828"/>
</g>
<defs>
<clipPath id="clip0_22_108">
<rect width="48" height="48" fill="white"/>
</clipPath>
</defs>
</svg>
